<svg width="64" height="62" viewBox="0 0 64 62" fill="none" xmlns="http://www.w3.org/2000/svg">
<path d="M15.14 0.410004C15.84 0.410004 16.46 0.850004 16.68 1.52C17.85 5.05 22.5 15.88 22.14 17.05C21.7 18.45 16.36 22.54 16.15 24.53C15.94 26.52 19.91 32.07 24.08 36.43C29.74 42.35 38.7 46.24 39.43 46.55C40.16 46.86 45.72 38.66 46.88 38.15C48.04 37.64 62.82 45.61 62.82 46.97C62.82 48.33 61.66 53.01 58.94 56.72C57.04 59.31 52.86 60.44 49.75 60.85C49.68 60.85 49.6 60.85 49.53 60.85C47.18 60.47 30.95 58.63 16.99 44.87C5.64 33.68 2.22998 20.94 1.15998 15.87C1.13998 15.8 1.14002 15.73 1.13002 15.66C1.07002 13.96 1.12998 8.92 4.71998 4.5C6.10998 2.79 8.52999 1.18 9.41999 0.620003C9.63999 0.480003 9.88002 0.410004 10.14 0.410004H15.15H15.14Z" fill="white" stroke="white" stroke-width="0.49" stroke-miterlimit="10"/>
</svg>
